<svg width="27" height="27" viewBox="0 0 27 27" fill="none" xmlns="http://www.w3.org/2000/svg">
<path d="M13.5 1C10.1024 1 9.67893 1.01641 8.34924 1.07266C7.01409 1.13828 6.11096 1.34531 5.31409 1.65469C4.48007 1.96955 3.72476 2.46251 3.10081 3.09922C2.46232 3.72172 1.96908 4.47745 1.65627 5.3125C1.3469 6.10937 1.13987 7.0125 1.07424 8.34766C1.01409 9.67812 1.00159 10.1008 1.00159 13.4984C1.00159 16.8961 1.01799 17.3195 1.07424 18.6492C1.13987 19.9805 1.3469 20.8875 1.65627 21.6844C1.97113 22.5184 2.4641 23.2737 3.10081 23.8977C3.7233 24.5361 4.47903 25.0294 5.31409 25.3422C6.11096 25.6477 7.01799 25.8586 8.34924 25.9242C9.67971 25.9844 10.1024 25.9969 13.5 25.9969C16.8977 25.9969 17.3211 25.9805 18.6508 25.9242C19.9821 25.8586 20.8891 25.6469 21.686 25.3422C22.52 25.0273 23.2753 24.5344 23.8992 23.8977C24.5385 23.2758 25.0319 22.5199 25.3438 21.6844C25.6492 20.8875 25.8602 19.9805 25.9258 18.6492C25.986 17.3187 25.9985 16.8961 25.9985 13.4984C25.9985 10.1008 25.9821 9.67734 25.9258 8.34766C25.8602 7.01641 25.6485 6.10469 25.3438 5.3125C25.0289 4.47849 24.5359 3.72317 23.8992 3.09922C23.2774 2.45991 22.5215 1.96655 21.686 1.65469C20.8891 1.34531 19.9821 1.13828 18.6508 1.07266C17.3203 1.0125 16.8977 1 13.5 1ZM13.5 3.25C16.8367 3.25 17.2352 3.26641 18.5539 3.32266C19.7703 3.37969 20.4328 3.58281 20.8727 3.75469C21.4164 3.95541 21.9086 4.27488 22.3133 4.68984C22.7276 5.09283 23.0458 5.58387 23.2446 6.12656C23.4164 6.56641 23.6196 7.22891 23.6766 8.44531C23.7328 9.76406 23.7492 10.1633 23.7492 13.4992C23.7492 16.8352 23.7328 17.2344 23.6719 18.5531C23.6063 19.7695 23.4031 20.432 23.2321 20.8719C22.9953 21.4586 22.7313 21.8688 22.2953 22.3125C21.8893 22.7249 21.3974 23.0428 20.8547 23.2438C20.4203 23.4156 19.7485 23.6187 18.5274 23.6758C17.2016 23.732 16.811 23.7484 13.4656 23.7484C10.1203 23.7484 9.73049 23.732 8.40315 23.6711C7.18674 23.6055 6.51565 23.4023 6.07581 23.2312C5.48206 22.9945 5.07502 22.7305 4.63909 22.2945C4.19924 21.8547 3.91956 21.4359 3.70393 20.8539C3.52893 20.4195 3.32893 19.7477 3.26409 18.5266C3.21956 17.2164 3.19846 16.8102 3.19846 13.4805C3.19846 10.1523 3.21956 9.74531 3.26409 8.41875C3.32893 7.19766 3.52893 6.52734 3.70393 6.09141C3.91956 5.49688 4.20002 5.09062 4.63909 4.65078C5.07424 4.21562 5.48206 3.93437 6.07581 3.71406C6.51565 3.54297 7.17034 3.33984 8.39143 3.27891C9.71721 3.23125 10.1078 3.21406 13.4485 3.21406L13.5 3.25ZM13.5 7.08359C12.6573 7.08329 11.8228 7.24904 11.0442 7.57139C10.2656 7.89373 9.55813 8.36635 8.96225 8.96223C8.36637 9.55811 7.89376 10.2656 7.57141 11.0442C7.24907 11.8228 7.08331 12.6573 7.08362 13.5C7.08331 14.3427 7.24907 15.1772 7.57141 15.9558C7.89376 16.7344 8.36637 17.4419 8.96225 18.0378C9.55813 18.6337 10.2656 19.1063 11.0442 19.4286C11.8228 19.751 12.6573 19.9167 13.5 19.9164C14.3427 19.9167 15.1772 19.751 15.9558 19.4286C16.7345 19.1063 17.4419 18.6337 18.0378 18.0378C18.6337 17.4419 19.1063 16.7344 19.4286 15.9558C19.751 15.1772 19.9167 14.3427 19.9164 13.5C19.9167 12.6573 19.751 11.8228 19.4286 11.0442C19.1063 10.2656 18.6337 9.55811 18.0378 8.96223C17.4419 8.36635 16.7345 7.89373 15.9558 7.57139C15.1772 7.24904 14.3427 7.08329 13.5 7.08359V7.08359ZM13.5 17.6664C11.1969 17.6664 9.33362 15.8031 9.33362 13.5C9.33362 11.1969 11.1969 9.33359 13.5 9.33359C15.8031 9.33359 17.6664 11.1969 17.6664 13.5C17.6664 15.8031 15.8031 17.6664 13.5 17.6664Z" fill="#FF52BF"/>
<path d="M21.675 6.82725C21.6746 7.22542 21.5161 7.60715 21.2344 7.88855C20.9527 8.16996 20.5709 8.32803 20.1727 8.32803C19.9758 8.32803 19.7808 8.28925 19.599 8.21391C19.4171 8.13856 19.2518 8.02813 19.1126 7.88892C18.9734 7.7497 18.8629 7.58443 18.7876 7.40254C18.7122 7.22064 18.6735 7.02569 18.6735 6.82881C18.6735 6.63193 18.7122 6.43698 18.7876 6.25508C18.8629 6.07319 18.9734 5.90792 19.1126 5.7687C19.2518 5.62949 19.4171 5.51905 19.599 5.44371C19.7808 5.36837 19.9758 5.32959 20.1727 5.32959C20.9985 5.32959 21.675 6.00147 21.675 6.82725V6.82725Z" fill="#FF52BF"/>
</svg>
