<svg width="27" height="27" viewBox="0 0 27 27" fill="none" xmlns="http://www.w3.org/2000/svg">
<path d="M25.6521 6.28075C24.7823 6.66616 23.8479 6.92658 22.8656 7.04429C23.8792 6.43782 24.6374 5.48332 24.999 4.35887C24.0467 4.92449 23.0045 5.32262 21.9177 5.53596C21.1869 4.75561 20.2188 4.23838 19.1639 4.06458C18.1089 3.89077 17.0261 4.07011 16.0836 4.57476C15.141 5.07941 14.3914 5.88113 13.9512 6.85544C13.511 7.82975 13.4047 8.92215 13.649 9.96304C11.7195 9.86616 9.8319 9.36465 8.10878 8.49107C6.38565 7.61748 4.86546 6.39133 3.64687 4.89221C3.23021 5.61096 2.99062 6.44429 2.99062 7.33179C2.99016 8.13074 3.18691 8.91746 3.56342 9.62214C3.93992 10.3268 4.48454 10.9277 5.14896 11.3714C4.37841 11.3469 3.62487 11.1386 2.95104 10.7641V10.8266C2.95096 11.9471 3.33858 13.0332 4.04811 13.9005C4.75764 14.7678 5.74539 15.363 6.84375 15.5849C6.12894 15.7784 5.37952 15.8069 4.65208 15.6682C4.96198 16.6324 5.56562 17.4756 6.37851 18.0796C7.19139 18.6837 8.17283 19.0184 9.18542 19.037C7.46649 20.3864 5.34363 21.1183 3.15833 21.1151C2.77123 21.1152 2.38445 21.0926 2 21.0474C4.2182 22.4736 6.80035 23.2306 9.4375 23.2276C18.3646 23.2276 23.2448 15.8339 23.2448 9.42137C23.2448 9.21304 23.2396 9.00262 23.2302 8.79429C24.1795 8.1078 24.9989 7.25772 25.65 6.28387L25.6521 6.28075V6.28075Z" fill="#FF52BF"/>
</svg>
